<svg xmlns="http://www.w3.org/2000/svg">
<!-- icomoon.io -->
<symbol id="camera" viewBox="0 0 512 512">
<path d="M152 304c0 57.438 46.562 104 104 104s104-46.562 104-104-46.562-104-104-104-104 46.562-104 104zm328-176h-112c-8-32-16-64-48-64h-128c-32 0-40 32-48 64h-112c-17.6 0-32 14.4-32 32v288c0 17.6 14.4 32 32 32h448c17.6 0 32-14.4 32-32v-288c0-17.6-14.4-32-32-32zm-224 318c-78.425 0-142-63.574-142-142 0-78.425 63.575-142 142-142 78.426 0 142 63.575 142 142 0 78.426-63.573 142-142 142zm224-222h-64v-32h64v32z"/>
</symbol>
<symbol id="pencil" viewBox="0 0 512 512">
<path d="M432 0c44.182 0 80 35.817 80 80 0 18.01-5.955 34.629-16 48l-32 32-112-112 32-32c13.371-10.045 29.989-16 48-16zm-400 368l-32 144 144-32 296-296-112-112-296 296zm325.789-186.211l-224 224-27.578-27.578 224-224 27.578 27.578z"/>
<symbol id="menu" viewBox="0 0 34 32">
<title>menu_explode</title>
<path fill="#eddb4b" style="fill: var(--color1, #eddb4b)" d="M7.589 0.52l2.061 11.263 1.62-2.65 2.161 6.998 19.828-1.44-12.935 8.208 4.526 1.117-8.049 3.436 12.466 4.188-22.053-1.669 0.425 1.669-3.076-1.734-0.425 1.374-0.818-1.472-2.258 1.145 0.949-2.29-1.309-1.603 1.538-0.327-1.571-2.192 1.734 0.327-2.127-8.802 2.487 5.53 0.687-10.634 1.047 5.301z"></path>
<path fill="#f37f50" style="fill: var(--color2, #f37f50)" d="M2.51 28.715l-0.988 1.764 1.963-1.080 0.687 1.423 0.245-1.325 2.748 1.571-0.589-1.472 18.798 1.521-14.135-3.877 9.601-3.015-9.57 0.515 12.588-7.141-13.472 3.018-0.221-5.889-2.65 6.037-0.663-12.073-2.356 12.956-0.81-6.699-0.736 7.951-1.914-4.564 1.84 7.067-1.472-0.368 1.62 1.988-1.914 0.221z"></path>
</symbol>
</svg>
