<?xml version="1.0" encoding="utf-8"?>
<!DOCTYPE svg PUBLIC "-//W3C//DTD SVG 1.1//EN" "http://www.w3.org/Graphics/SVG/1.1/DTD/svg11.dtd">
<svg version="1.1" id="Layer_1" xmlns="http://www.w3.org/2000/svg" xmlns:xlink="http://www.w3.org/1999/xlink" x="0px" y="0px"
	 width="687px" height="5863px" viewBox="0 0 687 5863" enable-background="new 0 0 687 5863" xml:space="preserve">
<g id="Layer_2_1_">
	<polygon fill="#EDDB4B" points="77.5,529.333 73,563.167 86.5,538.5 76.5,563.668 110,540.167 80.166,566.168 112.5,551.333 
		77.5,572 103.334,569.5 76.334,577.501 82.5,582.25 70.5,580.834 71.834,588.667 64.5,582 58.25,586.75 59.75,577 45.834,570.167 
		60.5,570.75 53,544.833 62.75,564.5 57,525.75 66.5,564 68.5,513.5 70.834,558.167 	"/>
	<polygon fill="#F37F50" points="61,576 59.5,584.5 64.5,579.5 70.5,586.5 68.5,579 78.75,581 72.5,576.75 84.25,573.75 74,572.5 
		100,558 73.5,570 95,551.75 71.75,569.25 81.334,549.833 71.25,567.25 74.667,544.5 69.75,565 68.667,541.167 67,570 60.5,544 
		64.5,569 57.5,556.5 62.25,572.5 51.5,571.5 	"/>
</g>
<g id="Layer_2_3_">
	<polygon fill="#EDDB4B" points="121.5,976.5 105.75,1128.75 170.75,1048.25 137.75,1153 299,1108 162.75,1181.75 296.25,1169 
		162.75,1212 224.75,1244.75 101,1237.5 118.5,1260.75 79.833,1242.833 79,1260.75 66.167,1241.5 48.167,1252.166 54.167,1232 
		35.25,1216.75 52.333,1215.666 40.5,1181.75 55.833,1194.333 43.5,1109.25 62.333,1159.833 71,1051.75 79.5,1132.75 	"/>
	<polygon fill="#F37F50" points="56.875,1230.125 55.375,1244.125 65,1237.375 74.25,1244.25 75.375,1237 90.5,1239.75 
		84.75,1231.375 122.75,1229 99,1217.25 159.25,1193 104.375,1203.125 204.25,1145.5 87.125,1203.875 121.25,1133.5 85.5,1179 
		98,1097.25 72,1194 69.25,1127 63.75,1191.125 50.5,1144 60,1206.5 50,1193.625 56.75,1219.25 43.25,1220.5 	"/>
</g>
<g id="Layer_2">
	<polygon fill="#EDDB4B" points="143,1455.666 149,1690.5 210,1585.666 203.666,1731.166 452.5,1699.166 288.334,1791.5 
		425,1800.666 254.834,1859.833 367.5,1916.166 126.166,1903.167 134,1926.166 88.334,1905.833 82,1926.166 68,1902.333 
		36.334,1916.832 48.334,1885.5 24.834,1860.333 45.667,1857.167 28.166,1817.167 49,1827.167 31.334,1715.166 59.834,1782.833 
		71.666,1646.832 91.334,1684.499 	"/>
	<polygon fill="#F37F50" points="57.125,1884.916 46.166,1907.834 68.25,1893.791 78.334,1906.5 82.5,1896.291 114.5,1908.834 
		107,1892.834 269,1904.166 149,1866.667 289.334,1822.832 165.666,1831 304,1744.833 123.334,1821.5 150.666,1737.833 
		125.333,1771.167 120.333,1652.833 75.166,1824.833 71.334,1710.5 63,1811.667 42.334,1756.166 56.25,1842.291 41.166,1830.667 
		54.625,1864.666 36.5,1866.667 	"/>
</g>
<g id="Layer_2_4_">
	<polygon fill="#EDDB4B" points="154.632,1965.596 196.63,2195.084 229.628,2141.087 273.666,2283.668 677.666,2254.334 
		414.119,2421.572 506.333,2444.335 342.333,2514.335 596.333,2599.668 147,2565.668 155.667,2599.668 93,2564.332 84.333,2592.332 
		67.666,2562.332 21.666,2585.666 41,2539.002 14.333,2506.332 45.666,2499.666 13.666,2455 49,2461.666 5.667,2282.335 
		56.333,2395 70.333,2178.334 91.666,2286.334 	"/>
	<polygon fill="#F37F50" points="51.136,2540.066 31,2576 71,2554 85,2583 90,2556 146,2588 134,2558 517,2589 229,2510 
		424.619,2448.57 229.628,2459.07 486.116,2313.577 211.629,2375.074 207.129,2255.08 153.132,2378.074 139.633,2132.088 
		91.635,2396.073 75.136,2259.58 60.137,2421.572 21.139,2328.577 58.637,2472.569 28.639,2465.07 61.637,2505.567 22.639,2510.067 
			"/>
</g>
<g id="Layer_2_5_">
	<polygon fill="#EDDB4B" points="149,2648.5 317,2634.5 360.628,2645.087 501,2667.5 645,2840.5 662,2948.5 612,3070.5 577,3131.5 
		543,3160.5 424,3159.5 367,3115.5 268,3077.5 196,3079.5 159,3089.5 134,3098.5 122,3111.5 106,3119.5 90,3120.5 69.666,3094 
		52,3045.5 27,2938.5 35,2838.5 52,2776.5 106,2694.5 	"/>
	<polygon fill="#F37F50" points="118,2979.5 140,2955.5 168,2936.5 188,2928.5 257,2925.5 316,2942.5 378,3001.5 416,3032.5 
		433,3013.5 446,2929.5 447,2889.5 386,2843.5 323,2831.5 288,2823.5 222,2806.5 192,2804.5 150,2813.5 130,2818.5 89,2857.5 
		78,2891.5 55,2955.5 65.639,2984.57 73,2999.5 99,2994.5 	"/>
</g>
<g id="Layer_2_2_">
	<polygon fill="#EDDB4B" points="144,3285.5 308,3273.5 369,3275.5 521,3317.5 588,3395.5 582,3461.5 508,3453.5 469,3444.5 
		434,3434.5 399,3434.5 342,3425.5 288,3438.5 255,3452.5 233,3468.5 219,3477.5 207,3488.5 191,3498.5 180,3516.5 132,3539.5 
		81,3552.5 43,3534.5 31,3468.5 34,3384.5 81,3321.5 	"/>
	<polygon fill="#F37F50" points="112,3461.5 128,3395.5 155,3355.5 188,3328.5 243,3305.5 282,3314.5 326,3323.5 376,3336.5 
		422,3353.5 527,3384.5 533,3364.5 489,3331.5 380,3304.5 293,3294.5 189,3297.5 143,3319.5 104,3361.5 88,3377.5 76,3416.5 
		69,3450.5 63,3486.5 70,3496.5 79,3502.5 93,3496.5 	"/>
</g>
<g id="Layer_2_7_">
	<polygon fill="#EDDB4B" points="177,3929.5 265,3921.5 369,3926.5 466,3941.5 518,3958.5 544,3987.5 509,3997.5 461,3978.5 
		415,3978.5 365,3961.5 319,3950.5 264,3948.5 224,3944.5 183,3995.5 163,4012.5 143,4038.5 130,4064.5 121,4087.5 102,4113.5 
		65,4127.5 45,4092.5 43,4046.5 86,3992.5 133,3958.5 	"/>
	<polygon fill="#F37F50" points="76,4034.5 110,4015.5 139,3994.5 151,3974.5 192,3951.5 291,3935.5 353,3948.5 377,3943.5 
		433,3967.5 492,3969.5 497,3962.5 446,3951.5 377,3937.5 294,3929.5 189,3948.5 143,3970.5 104,4012.5 85,4011.5 66,4036.5 
		58,4064.5 60,4079.5 70,4091.5 76,4096.5 84,4063.5 	"/>
</g>
<g id="Layer_2_8_">
	<polygon fill="#EDDB4B" points="179.5,4580.75 284.75,4573.5 368.5,4579 466.5,4603.75 493.25,4608 499.75,4612.5 497.5,4616.75 
		492,4621.25 433,4619.25 377.25,4595.25 368,4583.5 285.75,4578.25 265,4579.25 185.25,4585 137.5,4616.5 127,4638.25 110.75,4643 
		96.75,4647.25 81,4668.25 75,4697.75 66.75,4695 59,4682.25 63.25,4664.75 94.25,4642.25 	"/>
	<polygon fill="#F37F50" points="86.5,4661 96.5,4645 126.5,4636.5 135.5,4616.5 184.75,4584.25 285.5,4576.5 369.75,4582.75 
		380,4589.25 419.5,4598 429.75,4599.75 474.25,4597.75 429.75,4598 371.25,4581.25 285.75,4575.25 183.75,4582.75 134,4615 
		94.5,4644.5 80.25,4660.75 62.25,4676.25 63.75,4688 68.25,4694.25 74.75,4697.25 75.75,4687.25 79,4667.25 	"/>
</g>
<g id="Layer_2_6_">
	<polygon fill="#EDDB4B" points="94.125,5267.875 95.25,5289.25 93.125,5295.625 82.5,5304.5 73.75,5310.75 69.125,5308.25 
		67,5297.125 71.75,5287.625 84.875,5282.125 	"/>
	<polygon fill="#EDDB4B" points="426.5,5234.875 427.125,5219.375 427.375,5214.875 444.375,5236.875 444.25,5240.25 
		431.125,5245.125 414.25,5240.75 	"/>
	<polygon fill="#F37F50" points="91.375,5286.125 86.75,5294.375 83.75,5298.875 74.75,5300.375 72.25,5293.5 72.375,5300.375 
		74.5,5301.875 78.875,5303.125 88.375,5296.875 92.125,5288.375 93.375,5270.625 	"/>
	<polygon fill="#F37F50" points="430.5,5239.625 421.125,5242.375 430.75,5243.25 440,5238 433,5225.125 	"/>
</g>
</svg>
